<svg width="48" height="48" viewBox="0 0 48 48" fill="none" xmlns="http://www.w3.org/2000/svg">
  <path d="M40 4H8C5.79086 4 4 5.79086 4 8V34C4 36.2091 5.79086 38 8 38H14V44L24.5 38H40C42.2091 38 44 36.2091 44 34V8C44 5.79086 42.2091 4 40 4Z" stroke="#22d3ee" stroke-width="3" stroke-linecap="round" stroke-linejoin="round"/>
  <circle cx="24" cy="21" r="3" stroke="#22d3ee" stroke-width="3" stroke-linecap="round" stroke-linejoin="round"/>
  <circle cx="16" cy="21" r="2" stroke="#22d3ee" stroke-width="3" stroke-linecap="round" stroke-linejoin="round"/>
  <circle cx="32" cy="21" r="2" stroke="#22d3ee" stroke-width="3" stroke-linecap="round" stroke-linejoin="round"/>
  <circle cx="24" cy="13" r="2" stroke="#22d3ee" stroke-width="3" stroke-linecap="round" stroke-linejoin="round"/>
  <circle cx="24" cy="29" r="2" stroke="#22d3ee" stroke-width="3" stroke-linecap="round" stroke-linejoin="round"/>
  <path d="M32 21L37 17" stroke="#22d3ee" stroke-width="3" stroke-linecap="round" stroke-linejoin="round"/>
  <path d="M37 25V17" stroke="#22d3ee" stroke-width="3" stroke-linecap="round" stroke-linejoin="round"/>
  <path d="M24 13V8" stroke="#22d3ee" stroke-width="3" stroke-linecap="round" stroke-linejoin="round"/>
  <path d="M16 21L11 25" stroke="#22d3ee" stroke-width="3" stroke-linecap="round" stroke-linejoin="round"/>
</svg>
